# xmcd
#
# Track frame offsets: 
#        150
#        6332
#        23827
#        43530
#        47900
#        66402
#        69870
#        91527
#        111247
#        113505
#        131135
#        148197
#        166557
#        187625
#
# Disc length: 2828 seconds
#
# Revision: 3
# Processed by: cddbd v1.5.2PL0 Copyright (c) Steve Scherf et al.
# Submitted via: ExactAudioCopy v0.95a5
#
DISCID=b00b0a0e
DTITLE=Case - k-Case
DYEAR=1996
DGENRE=R&B
TTITLE0=The Tunnel (Interlude)
TTITLE1=More To Love
TTITLE2=Don't Be Afraid
TTITLE3=Call A Cab (Interlude)
TTITLE4=I Gotcha
TTITLE5=Crazy (Interlude)
TTITLE6=Crazy
TTITLE7=What's Wrong?
TTITLE8=Rain (Interlude)
TTITLE9=Rain
TTITLE10=Touch Me Tease Me (feat. Foxy Brown)
TTITLE11=The Day That I Die
TTITLE12=Fallin'
TTITLE13=Cryin' Over Time
EXTD=YEAR: 1996
EXTT0=
EXTT1=
EXTT2=
EXTT3=
EXTT4=
EXTT5=
EXTT6=
EXTT7=
EXTT8=
EXTT9=
EXTT10=
EXTT11=
EXTT12=
EXTT13=
PLAYORDER=
